<svg xmlns="http://www.w3.org/2000/svg" width="195" height="159" xmlns:xlink="http://www.w3.org/1999/xlink"><title>fobo</title><desc>Created with Sketch.</desc><defs><path id="a" d="M0 .77h194.37V159H0V.77z"/></defs><g fill="none"><g><mask id="b"><use xlink:href="#a"/></mask><path fill="#303030" d="M133.43 57.93c-1.96-19.95-19.68-36-42.17-38.54 1.94-.24 3.92-.37 5.92-.37 23.32 0 42.3 16.2 42.5 36.2-.65.75-2.74 1.73-6.25 2.7zm-10.5 53.85c-6.6 6.6-15.7 10.7-25.75 10.7-10.04 0-19.15-4.1-25.75-10.7l-8.6 8.62c8.8 8.8 20.94 14.26 34.35 14.26 13.42 0 25.57-5.45 34.36-14.26l-8.6-8.62zM97.2 146.83c-16.74 0-31.93-6.83-42.93-17.85l-8.6 8.63c13.18 13.23 31.4 21.4 51.53 21.4 20.13 0 38.36-8.17 51.54-21.4l-8.6-8.62c-11 11.02-26.2 17.85-42.94 17.85zm0-133.9c-26.83 0-48.6 19.08-48.6 42.6 0 6.73 21.77 12.18 48.6 12.18 26.84 0 48.6-5.44 48.6-12.16 0-23.53-21.76-42.6-48.6-42.6zm97.2 54.78c0 16.82-43.52 30.44-97.2 30.44C43.5 98.14 0 84.52 0 67.7c0-9.8 14.86-18.54 37.9-24.1C43.97 19.1 68.2.77 97.2.77c29 0 53.23 18.33 59.28 42.83 23.05 5.56 37.9 14.3 37.9 24.1z" mask="url(#b)"/></g></g></svg>