<svg xmlns="http://www.w3.org/2000/svg" width="76" height="61" xmlns:xlink="http://www.w3.org/1999/xlink"><title>gone-logo</title><desc>Created with Sketch.</desc><defs><path id="a" d="M0 .87h75.9V61H0V.87z"/></defs><g fill="none"><g><mask id="b"><use xlink:href="#a"/></mask><path fill="#303030" d="M46.24 57.53c-11.94 0-22.04-8.08-25.18-19.08h50.37c-3.13 11-13.4 19.08-25.2 19.08zM20.3 34.78c-.16-1.84-.25-2.57-.25-3.8 0-14.48 11.75-26.34 26.2-26.34C55 4.64 63.16 9.04 68 16.3c.06.08.14.13.23.13h3.68c.22 0 .35-.23.25-.4C66.83 6.18 56.95.86 46.25.86 29.77.87 16.38 14.5 16.38 31c0 1.22.07 1.94.2 3.78H3.38c-.07 0-.14.02-.2.08L.1 37.98c-.17.17-.05.47.2.47h17C20.5 51.3 32.27 61 46.23 61c14.3 0 26.63-10.1 29.3-24.15l.35-1.74c.02-.16-.1-.32-.28-.32H20.3z" mask="url(#b)"/></g></g></svg>