<?xml version="1.0" encoding="UTF-8" standalone="no"?>
<svg width="549px" height="309px" viewBox="0 0 549 309" version="1.1" xmlns="http://www.w3.org/2000/svg" xmlns:xlink="http://www.w3.org/1999/xlink">
    <!-- Generator: Sketch 3.6.1 (26313) - http://www.bohemiancoding.com/sketch -->
    <title>Artboard 115@1x</title>
    <desc>Created with Sketch.</desc>
    <defs>
        <rect id="path-1" x="0" y="0" width="45.816368" height="45.816368" rx="3"></rect>
        <rect id="path-3" x="0" y="0" width="45.816368" height="45.816368" rx="3"></rect>
        <rect id="path-5" x="0" y="0" width="16" height="16" rx="3"></rect>
        <rect id="path-7" x="0" y="0" width="16" height="16" rx="3"></rect>
        <rect id="path-9" x="0" y="1.13686838e-13" width="50.3767782" height="50.3767782" rx="3"></rect>
        <rect id="path-11" x="0" y="1.13686838e-13" width="50.3767782" height="50.3767782" rx="3"></rect>
        <rect id="path-13" x="0" y="0" width="22.3199997" height="22.3199997" rx="3"></rect>
        <rect id="path-15" x="0" y="0" width="22.3199997" height="22.3199997" rx="3"></rect>
        <circle id="path-17" cx="8.5" cy="8.5" r="8.5"></circle>
        <circle id="path-19" cx="8.5" cy="8.5" r="8.5"></circle>
        <circle id="path-21" cx="3.28531469" cy="3.28531469" r="3.28531469"></circle>
        <circle id="path-23" cx="3.28531469" cy="3.28531469" r="3.28531469"></circle>
        <rect id="path-25" x="0" y="0" width="61" height="61" rx="3"></rect>
        <rect id="path-27" x="0" y="0" width="61" height="61" rx="3"></rect>
        <rect id="path-29" x="0" y="0" width="30" height="30" rx="3"></rect>
        <rect id="path-31" x="0" y="0" width="30" height="30" rx="3"></rect>
        <circle id="path-33" cx="12" cy="12" r="12"></circle>
        <circle id="path-35" cx="12" cy="12" r="12"></circle>
        <circle id="path-37" cx="12" cy="12" r="12"></circle>
        <circle id="path-39" cx="12" cy="12" r="12"></circle>
        <circle id="path-41" cx="6.1012987" cy="6.1012987" r="6.1012987"></circle>
        <circle id="path-43" cx="6.1012987" cy="6.1012987" r="6.1012987"></circle>
        <ellipse id="path-45" cx="6.1012987" cy="6.1012987" rx="6.1012987" ry="6.1012987"></ellipse>
        <ellipse id="path-47" cx="6.1012987" cy="6.1012987" rx="6.1012987" ry="6.1012987"></ellipse>
    </defs>
    <g id="Page-1" stroke="none" stroke-width="1" fill="none" fill-rule="evenodd">
        <g id="FAQ-Copy" transform="translate(416.000000, 25.000000)"></g>
        <g id="FAQ-Mini-Copy" transform="translate(501.000000, 44.000000)"></g>
        <g id="Feed-Copy-84" transform="translate(284.000000, 116.000000)"></g>
        <g id="Feed-Copy-85" transform="translate(369.000000, 135.000000)"></g>
        <g id="Feed-Copy-86" transform="translate(284.000000, 206.000000)"></g>
        <g id="Feed-Copy-87" transform="translate(369.000000, 225.000000)"></g>
        <g id="Feed-Copy-88" transform="translate(20.000000, 114.000000)"></g>
        <g id="Feed-Copy-89" transform="translate(105.000000, 133.000000)"></g>
        <g id="Feed-Copy-90" transform="translate(152.000000, 206.000000)"></g>
        <g id="Feed-Copy-91" transform="translate(237.000000, 225.000000)"></g>
        <g id="Feed-Copy-94" transform="translate(20.000000, 204.000000)"></g>
        <g id="Feed-Copy-95" transform="translate(105.000000, 223.000000)"></g>
        <g id="Feed-Copy-92" transform="translate(152.000000, 116.000000)"></g>
        <g id="Feed-Copy-93" transform="translate(237.000000, 135.000000)"></g>
        <g id="Feed-Copy-82" transform="translate(20.000000, 24.000000)"></g>
        <g id="Feed-Copy-83" transform="translate(105.000000, 43.000000)"></g>
        <g id="Document-Copy-2" transform="translate(152.000000, 24.000000)"></g>
        <g id="FAQ-Copy-11" transform="translate(230.000000, 43.000000)"></g>
        <g id="Feed-Copy-80" transform="translate(284.000000, 24.000000)"></g>
        <g id="Feed-Copy-81" transform="translate(370.000000, 43.000000)"></g>
        <g id="Feed-Copy" transform="translate(416.000000, 206.000000)"></g>
        <g id="Feed-Copy-2" transform="translate(501.000000, 225.000000)"></g>
        <g id="Popup-Copy" transform="translate(416.000000, 116.000000)"></g>
        <g id="Popup-Mini-Copy" transform="translate(501.000000, 135.000000)"></g>
        <g id="Artboard-115">
            <g id="Group-Copy" transform="translate(435.456847, 49.790860)" stroke="#000000" fill="#FFFFFF">
                <path d="M9.86369567,31.3901258 L44.7614111,31.3901258 C46.4149372,31.3901258 47.7675828,30.0425848 47.7675828,28.3803086 L47.7675828,3.00981723 C47.7675828,1.34879447 46.4216739,-2.30926389e-14 44.7614111,-2.30926389e-14 L3.00617168,-2.30926389e-14 C1.35264562,-2.30926389e-14 3.55271368e-15,1.34754107 3.55271368e-15,3.00981723 L3.55271368e-15,25.0464231 L3.55271368e-15,41.2538215 L9.86369567,31.3901258 Z" id="Combined-Shape" transform="translate(23.883791, 20.626911) scale(-1, 1) translate(-23.883791, -20.626911) "></path>
            </g>
            <g id="Group" transform="translate(418.955319, 28.955319)">
                <path d="M9.86369567,32.0571322 L44.7614111,32.0571322 C46.4149372,32.0571322 47.7675828,30.7095911 47.7675828,29.047315 L47.7675828,3.67682359 C47.7675828,2.01580083 46.4216739,0.667006357 44.7614111,0.667006357 L3.00617168,0.667006357 C1.35264562,0.667006357 3.55271368e-15,2.01454743 3.55271368e-15,3.67682359 L3.55271368e-15,25.7134295 L0,41.9208279 L9.86369567,32.0571322 Z" id="Combined-Shape" stroke="#000000" fill="#FFFFFF"></path>
                <path d="M17.4146991,10.3194183 L18.5713818,10.3194183 C18.8301135,7.62556529 20.7934301,5.86010227 23.4264051,5.86010227 C26.1354777,5.86010227 28.1748919,7.67122381 28.1748919,10.2128818 C28.1748919,11.8565887 27.3682579,13.089369 25.2831852,14.5808808 C23.0611369,16.1484902 22.315381,17.2899534 22.3306005,19.2989285 L22.3306005,20.7904404 L23.5025027,20.7904404 L23.5025027,19.4206846 C23.5025027,17.6400021 24.080844,16.7268316 26.1659167,15.2961977 C28.4336235,13.7133688 29.4076721,12.252296 29.4076721,10.1672233 C29.4076721,7.10810199 26.9116726,4.77951714 23.4568441,4.77951714 C20.0020156,4.77951714 17.6125528,7.16898002 17.4146991,10.3194183 L17.4146991,10.3194183 Z M22.9546003,27.1521951 C23.5633807,27.1521951 24.0351855,26.6803903 24.0351855,26.07161 C24.0351855,25.4780491 23.5633807,25.0062443 22.9546003,25.0062443 C22.3610395,25.0062443 21.8892347,25.4780491 21.8892347,26.07161 C21.8892347,26.6803903 22.3610395,27.1521951 22.9546003,27.1521951 L22.9546003,27.1521951 Z" id="?" fill="#000000"></path>
            </g>
            <g id="Group-Copy" transform="translate(451.041624, 63.542134)" fill="#000000">
                <path d="M1.86931379,2.90244986 C2.47809414,2.90244986 2.94989891,2.43064508 2.94989891,1.82186473 C2.94989891,1.22830389 2.47809414,0.756499114 1.86931379,0.756499114 C1.27575294,0.756499114 0.803948171,1.22830389 0.803948171,1.82186473 C0.803948171,2.43064508 1.27575294,2.90244986 1.86931379,2.90244986 L1.86931379,2.90244986 Z" id="?-copy"></path>
                <path d="M8.28657491,2.90244986 C8.89535527,2.90244986 9.36716004,2.43064508 9.36716004,1.82186473 C9.36716004,1.22830389 8.89535527,0.756499114 8.28657491,0.756499114 C7.69301407,0.756499114 7.2212093,1.22830389 7.2212093,1.82186473 C7.2212093,2.43064508 7.69301407,2.90244986 8.28657491,2.90244986 L8.28657491,2.90244986 Z" id="?-copy"></path>
                <path d="M14.703836,2.90244986 C15.3126164,2.90244986 15.7844212,2.43064508 15.7844212,1.82186473 C15.7844212,1.22830389 15.3126164,0.756499114 14.703836,0.756499114 C14.1102752,0.756499114 13.6384704,1.22830389 13.6384704,1.82186473 C13.6384704,2.43064508 14.1102752,2.90244986 14.703836,2.90244986 L14.703836,2.90244986 Z" id="?-copy"></path>
            </g>
            <g id="Group-2" transform="translate(503.000000, 46.000000)">
                <g id="Group-Copy-2" transform="translate(7.098592, 10.253521)" stroke="#000000" fill="#FFFFFF" stroke-linecap="round" stroke-linejoin="round">
                    <path d="M4.24314307,13.5033358 L17.5386118,13.5033358 C19.2003064,13.5033358 20.5485545,12.1616103 20.5485545,10.5065079 L20.5485545,2.99682787 C20.5485545,1.34411876 19.2009572,-1.86517468e-14 17.5386118,-1.86517468e-14 L3.00994269,-1.86517468e-14 C1.34824805,-1.86517468e-14 -5.32907052e-14,1.34172554 -5.32907052e-14,2.99682787 L-5.32907052e-14,9.92337998 L-5.32907052e-14,17.7464789 L4.24314307,13.5033358 Z" id="Combined-Shape" transform="translate(10.274277, 8.873239) scale(-1, 1) translate(-10.274277, -8.873239) "></path>
                </g>
                <g id="Group-Copy-3">
                    <path d="M4.24314307,14.0808006 L17.5386118,14.0808006 C19.2003064,14.0808006 20.5485545,12.7390751 20.5485545,11.0839727 L20.5485545,3.57429266 C20.5485545,1.92158355 19.2009572,0.577464789 17.5386118,0.577464789 L3.00994269,0.577464789 C1.34824805,0.577464789 -1.77635684e-15,1.91919033 -1.77635684e-15,3.57429266 L-1.77635684e-15,10.5008448 L-1.77635684e-15,18.3239437 L4.24314307,14.0808006 Z" id="Combined-Shape" stroke="#000000" stroke-linecap="round" stroke-linejoin="round" fill="#FFFFFF"></path>
                    <path d="M7.63545335,4.93568442 L8.4865757,4.93568442 C8.57168794,3.9012434 9.29841549,3.24653389 10.3459507,3.24653389 C11.400033,3.24653389 12.1398548,3.92088468 12.1398548,4.85057218 C12.1398548,5.57075264 11.8321413,6.0225022 11.0072073,6.559364 C10.0840669,7.14860255 9.70433539,7.69855854 9.71088248,8.56932218 L9.71088248,9.18474912 L10.5816461,9.18474912 L10.5816461,8.69371699 C10.5816461,7.96698944 10.8238886,7.59380502 11.6815581,7.04384903 C12.5785101,6.46770467 13.0629952,5.78025968 13.0629952,4.81128961 C13.0629952,3.47568222 11.9565361,2.46742958 10.3786862,2.46742958 C8.68953565,2.46742958 7.70747139,3.54770026 7.63545335,4.93568442 L7.63545335,4.93568442 Z M10.228103,12.1047535 C10.6667584,12.1047535 10.987566,11.7773988 10.987566,11.3387434 C10.987566,10.8935409 10.6667584,10.5661862 10.228103,10.5661862 C9.78290053,10.5661862 9.46209287,10.8935409 9.46209287,11.3387434 C9.46209287,11.7773988 9.78290053,12.1047535 10.228103,12.1047535 L10.228103,12.1047535 Z" id="?" fill="#000000"></path>
                </g>
                <g id="Group-Copy-4" transform="translate(11.704225, 15.569416)" fill="#000000">
                    <path d="M1.28629612,1.99720883 C1.70520482,1.99720883 2.02985906,1.67255458 2.02985906,1.25364588 C2.02985906,0.845209904 1.70520482,0.520555662 1.28629612,0.520555662 C0.877860141,0.520555662 0.553205899,0.845209904 0.553205899,1.25364588 C0.553205899,1.67255458 0.877860141,1.99720883 1.28629612,1.99720883 L1.28629612,1.99720883 Z" id="?-copy"></path>
                    <path d="M5.70208664,1.99720883 C6.12099534,1.99720883 6.44564958,1.67255458 6.44564958,1.25364588 C6.44564958,0.845209904 6.12099534,0.520555662 5.70208664,0.520555662 C5.29365066,0.520555662 4.96899642,0.845209904 4.96899642,1.25364588 C4.96899642,1.67255458 5.29365066,1.99720883 5.70208664,1.99720883 L5.70208664,1.99720883 Z" id="?-copy"></path>
                    <path d="M10.1178772,1.99720883 C10.5367859,1.99720883 10.8614401,1.67255458 10.8614401,1.25364588 C10.8614401,0.845209904 10.5367859,0.520555662 10.1178772,0.520555662 C9.70944118,0.520555662 9.38478693,0.845209904 9.38478693,1.25364588 C9.38478693,1.67255458 9.70944118,1.99720883 10.1178772,1.99720883 L10.1178772,1.99720883 Z" id="?-copy"></path>
                </g>
            </g>
            <g id="Group" transform="translate(287.000000, 118.000000)" fill="#000000">
                <path d="M15.71875,36.9101562 C15.71875,40.2500167 15.041999,42.8281159 13.6884766,44.6445312 C12.3349542,46.4609466 10.4218874,47.3691406 7.94921875,47.3691406 C5.47655014,47.3691406 3.55469436,46.4580169 2.18359375,44.6357422 C0.812493145,42.8134675 0.126953125,40.2382979 0.126953125,36.9101562 L0.126953125,31.4960938 C0.126953125,28.1679521 0.806633828,25.5927825 2.16601562,23.7705078 C3.52539742,21.9482331 5.44139389,21.0371094 7.9140625,21.0371094 C10.3867311,21.0371094 12.3056572,21.9482331 13.6708984,23.7705078 C15.0361396,25.5927825 15.71875,28.1679521 15.71875,31.4960938 L15.71875,36.9101562 Z M14.7695312,31.4960938 C14.7695312,28.5195164 14.1835996,26.1904381 13.0117188,24.5087891 C11.8398379,22.82714 10.1406361,21.9863281 7.9140625,21.9863281 C5.68748887,21.9863281 3.99121677,22.82714 2.82519531,24.5087891 C1.65917386,26.1904381 1.07617188,28.5195164 1.07617188,31.4960938 L1.07617188,36.875 C1.07617188,39.8281398 1.66503317,42.157218 2.84277344,43.8623047 C4.0205137,45.5673913 5.72264512,46.4199219 7.94921875,46.4199219 C10.1640736,46.4199219 11.8544864,45.570321 13.0205078,43.8710938 C14.1865293,42.1718665 14.7695312,39.8398586 14.7695312,36.875 L14.7695312,31.4960938 Z" id="0"></path>
                <path d="M28.7324219,33.4472656 L30.6835937,33.4472656 C32.8281357,33.4472656 34.5156188,32.9140678 35.7460937,31.8476562 C36.9765687,30.7812447 37.5917969,29.4687578 37.5917969,27.9101562 C37.5917969,26.1874914 37.0615287,24.7695368 36.0009766,23.65625 C34.9404244,22.5429632 33.3789166,21.9863281 31.3164062,21.9863281 C29.4179593,21.9863281 27.8418031,22.5429632 26.5878906,23.65625 C25.3339781,24.7695368 24.7070312,26.2519439 24.7070312,28.1035156 L23.8984375,28.1035156 L23.8632812,27.9980469 C23.8046872,25.9238178 24.4990162,24.2451236 25.9462891,22.9619141 C27.3935619,21.6787045 29.1835831,21.0371094 31.3164062,21.0371094 C33.5195423,21.0371094 35.2744075,21.6611266 36.5810547,22.9091797 C37.8877018,24.1572328 38.5410156,25.8476456 38.5410156,27.9804688 C38.5410156,29.3281317 38.1162152,30.5351509 37.2666016,31.6015625 C36.4169879,32.6679741 35.2714916,33.4355445 33.8300781,33.9042969 C35.4941489,34.3144552 36.7890579,35.0585884 37.7148437,36.1367188 C38.6406296,37.2148491 39.1035156,38.5742105 39.1035156,40.2148438 C39.1035156,42.4414174 38.3945383,44.1904233 36.9765625,45.4619141 C35.5585867,46.7334048 33.7246206,47.3691406 31.4746094,47.3691406 C29.3066298,47.3691406 27.3906333,46.7275455 25.7265625,45.4443359 C24.0624917,44.1611264 23.2597653,42.3418087 23.3183594,39.9863281 L23.3535156,39.8808594 L24.1621094,39.8808594 C24.1621094,41.7793064 24.8564384,43.3437438 26.2451172,44.5742188 C27.633796,45.8046937 29.3769426,46.4199219 31.4746094,46.4199219 C33.5839949,46.4199219 35.2246035,45.8779351 36.3964844,44.7939453 C37.5683652,43.7099555 38.1542969,42.2070409 38.1542969,40.2851562 C38.1542969,38.2929588 37.4834051,36.8193407 36.1416016,35.8642578 C34.799798,34.9091749 32.9804802,34.4316406 30.6835937,34.4316406 L28.7324219,34.4316406 L28.7324219,33.4472656 Z" id="3"></path>
                <path d="M55.0898438,0.037109375 C55.9804732,0.037109375 56.8505817,0.133788096 57.7001953,0.327148438 C58.5498089,0.520508779 59.3496056,0.833982207 60.0996094,1.26757812 L59.7304688,2.1640625 C58.9570274,1.71874777 58.2392611,1.41113366 57.5771484,1.24121094 C56.9150358,1.07128821 56.0859425,0.986328125 55.0898438,0.986328125 C53.0390522,0.986328125 51.3574284,1.77440618 50.0449219,3.35058594 C48.7324153,4.92676569 48.0761719,7.31443713 48.0761719,10.5136719 L48.0761719,13.5898437 C48.6269559,12.3124936 49.508783,11.2578167 50.7216797,10.4257812 C51.9345764,9.59374584 53.3378827,9.17773438 54.9316406,9.17773438 C57.2402459,9.17773438 59.0507747,9.97460141 60.3632812,11.5683594 C61.6757878,13.1621173 62.3320312,15.2773306 62.3320312,17.9140625 C62.3320312,20.3398559 61.6201243,22.3554607 60.1962891,23.9609375 C58.7724538,25.5664143 56.9589954,26.3691406 54.7558594,26.3691406 C52.4941293,26.3691406 50.6572336,25.4902432 49.2451172,23.7324219 C47.8330008,21.9746006 47.1269531,19.4961097 47.1269531,16.296875 L47.1269531,10.53125 C47.1269531,7.10935789 47.8769456,4.50489175 49.3769531,2.71777344 C50.8769606,0.930655127 52.7812385,0.037109375 55.0898438,0.037109375 L55.0898438,0.037109375 Z M48.0761719,16.2265625 L48.0761719,16.2792969 C48.0761719,19.1855614 48.6855408,21.4384686 49.9042969,23.0380859 C51.123053,24.6377033 52.7402243,25.4375 54.7558594,25.4375 C56.7129004,25.4375 58.3066345,24.6992261 59.5371094,23.2226562 C60.7675843,21.7460864 61.3828125,19.9765728 61.3828125,17.9140625 C61.3828125,15.5468632 60.8203181,13.6572336 59.6953125,12.2451172 C58.5703069,10.8330008 56.9414169,10.1269531 54.8085938,10.1269531 C53.015616,10.1269531 51.4482489,10.7275331 50.1064453,11.9287109 C48.7646417,13.1298888 48.09375,14.5624917 48.09375,16.2265625 L48.0761719,16.2265625 Z" id="6"></path>
                <path d="M62.6835938,41.3554688 C60.1640499,44.2851709 58.0224698,47.6279109 56.2587891,51.3837891 C54.4951084,55.1396672 53.349612,59.478491 52.8222656,64.4003906 L52.7167969,66 L51.7675781,66 L51.8730469,64.4003906 C52.3769556,59.78318 53.4521402,55.5703315 55.0986328,51.7617188 C56.7451254,47.953106 58.8925649,44.4843906 61.5410156,41.3554688 L47.2851562,41.3554688 L47.2851562,45.5566406 L46.3359375,45.5566406 L46.3359375,40.40625 L62.6835938,40.40625 L62.6835938,41.3554688 Z" id="7"></path>
            </g>
            <g id="Group-Copy" transform="translate(372.000000, 137.000000)" stroke="#000000" stroke-width="0.35" fill="#000000">
                <path d="M6.52932692,15.4251399 C6.52932692,16.8209025 6.24821495,17.8983171 5.68598257,18.657416 C5.12375019,19.416515 4.32909167,19.7960588 3.30198317,19.7960588 C2.27487467,19.7960588 1.47656535,19.4152907 0.90703125,18.653743 C0.337497152,17.8921954 0.052734375,16.8160051 0.052734375,15.4251399 L0.052734375,13.1625466 C0.052734375,11.7716815 0.335063282,10.6954912 0.899729567,9.93394356 C1.46439585,9.17239591 2.26027131,8.7916278 3.28737981,8.7916278 C4.31448831,8.7916278 5.1115807,9.17239591 5.67868089,9.93394356 C6.24578108,10.6954912 6.52932692,11.7716815 6.52932692,13.1625466 L6.52932692,15.4251399 Z M6.13503606,13.1625466 C6.13503606,11.9186039 5.89164907,10.9452577 5.40486779,10.242479 C4.91808651,9.53970031 4.21226424,9.18831623 3.28737981,9.18831623 C2.36249538,9.18831623 1.65789004,9.53970031 1.17354267,10.242479 C0.689195295,10.9452577 0.44702524,11.9186039 0.44702524,13.1625466 L0.44702524,15.4104478 C0.44702524,16.6445957 0.691629165,17.6179419 1.18084435,18.3305154 C1.67005954,19.0430889 2.37709874,19.3993703 3.30198317,19.3993703 C4.22199979,19.3993703 4.92417126,19.0443133 5.40851863,18.3341884 C5.892866,17.6240636 6.13503606,16.6494931 6.13503606,15.4104478 L6.13503606,13.1625466 Z" id="0"></path>
                <path d="M11.935006,13.9779618 L12.7454928,13.9779618 C13.6363025,13.9779618 14.3372571,13.7551328 14.8483774,13.3094683 C15.3594977,12.8638037 15.6150541,12.3153018 15.6150541,11.6639459 C15.6150541,10.9440263 15.3947889,10.3514482 14.9542518,9.88619403 C14.5137147,9.42093984 13.8650884,9.18831623 13.0083534,9.18831623 C12.2197677,9.18831623 11.5650567,9.42093984 11.0442007,9.88619403 C10.5233448,10.3514482 10.2629207,10.9709616 10.2629207,11.7447528 L9.92704327,11.7447528 L9.9124399,11.7006763 C9.88810084,10.8338343 10.1765144,10.1322905 10.7776893,9.59602379 C11.3788642,9.05975711 12.1224114,8.7916278 13.0083534,8.7916278 C13.9235022,8.7916278 14.6524462,9.0524111 15.1952073,9.57398554 C15.7379685,10.09556 16.009345,10.8020011 16.009345,11.6933302 C16.009345,12.2565327 15.8328894,12.7609586 15.479973,13.2066231 C15.1270565,13.6522877 14.651235,13.9730634 14.052494,14.1689599 C14.7437234,14.3403693 15.2816087,14.6513504 15.6661659,15.1019123 C16.0507231,15.5524743 16.2429988,16.1205656 16.2429988,16.8062034 C16.2429988,17.7367117 15.9485005,18.4676396 15.3594952,18.9990089 C14.7704898,19.5303781 14.0086886,19.7960588 13.0740685,19.7960588 C12.1735231,19.7960588 11.3776477,19.5279295 10.6864183,18.9916628 C9.99518885,18.4553961 9.66174868,17.6950842 9.68608774,16.7107043 L9.70069111,16.6666278 L10.0365685,16.6666278 C10.0365685,17.4600086 10.3249821,18.1138034 10.9018179,18.6280317 C11.4786537,19.14226 12.20273,19.3993703 13.0740685,19.3993703 C13.9502748,19.3993703 14.6317584,19.1728684 15.1185397,18.7198577 C15.6053209,18.2668471 15.8487079,17.6387633 15.8487079,16.8355877 C15.8487079,16.0030276 15.5700298,15.3871872 15.0126653,14.988048 C14.4553007,14.5889089 13.6995841,14.3893424 12.7454928,14.3893424 L11.935006,14.3893424 L11.935006,13.9779618 Z" id="3"></path>
                <path d="M22.8834736,0.0155083955 C23.2534273,0.0155083955 23.614857,0.055911443 23.9677734,0.13671875 C24.3206899,0.217526057 24.6529131,0.348529878 24.9644531,0.529734142 L24.8111178,0.904384328 C24.4898421,0.718282652 24.1916931,0.589727501 23.9166617,0.518715019 C23.6416302,0.447702537 23.2972376,0.412196828 22.8834736,0.412196828 C22.0316063,0.412196828 21.3330857,0.741542882 20.7878906,1.40024487 C20.2426956,2.05894686 19.9701022,3.0567797 19.9701022,4.39377332 L19.9701022,5.67933769 C20.1988894,5.14551972 20.5651868,4.7047592 21.0690054,4.35704291 C21.572824,4.00932662 22.1557359,3.83547108 22.8177584,3.83547108 C23.7767175,3.83547108 24.5287833,4.16849014 25.0739784,4.83453825 C25.6191734,5.50058635 25.8917668,6.38455606 25.8917668,7.48647388 C25.8917668,8.50023828 25.5960516,9.3425806 25.0046124,10.0135261 C24.4131731,10.6844716 23.6598904,11.0199394 22.7447416,11.0199394 C21.8052537,11.0199394 21.0422355,10.6526389 20.4556641,9.91802705 C19.8690926,9.18341517 19.5758113,8.14762795 19.5758113,6.81063433 L19.5758113,4.4011194 C19.5758113,2.97107494 19.8873466,1.88264133 20.5104267,1.13578591 C21.1335067,0.388930501 21.9245144,0.0155083955 22.8834736,0.0155083955 L22.8834736,0.0155083955 Z M19.9701022,6.78125 L19.9701022,6.80328825 C19.9701022,8.01784656 20.2232246,8.95936 20.7294772,9.62785681 C21.2357297,10.2963536 21.9074778,10.630597 22.7447416,10.630597 C23.5576663,10.630597 24.2196789,10.3220647 24.7307993,9.70499067 C25.2419196,9.08791669 25.497476,8.34841849 25.497476,7.48647388 C25.497476,6.49719655 25.2638245,5.70750062 24.7965144,5.11736241 C24.3292044,4.52722419 23.6525886,4.23215951 22.7666466,4.23215951 C22.0218713,4.23215951 21.3708111,4.48314814 20.8134465,4.98513293 C20.2560819,5.48711772 19.9774038,6.08581742 19.9774038,6.78125 L19.9701022,6.78125 Z" id="6"></path>
                <path d="M26.0378005,17.2828825 C24.9912207,18.5072356 24.1016413,19.9042016 23.3690355,21.4738223 C22.6364296,23.043443 22.1606081,24.8566828 21.9415565,26.9135961 L21.8977464,27.5820896 L21.5034555,27.5820896 L21.5472656,26.9135961 C21.7565816,24.9840155 22.2031967,23.2234221 22.8871244,21.6317631 C23.5710521,20.040104 24.4630654,18.5904916 25.5631911,17.2828825 L19.6415264,17.2828825 L19.6415264,19.0385961 L19.2472356,19.0385961 L19.2472356,16.886194 L26.0378005,16.886194 L26.0378005,17.2828825 Z" id="7"></path>
            </g>
            <g id="Photo" transform="translate(296.591816, 208.209402)">
                <mask id="mask-2" fill="white">
                    <use xlink:href="#path-1"></use>
                </mask>
                <use id="Mask" stroke="#000000" xlink:href="#path-1"></use>
                <g id="Group-7" mask="url(#mask-2)" stroke="#000000" fill="#FFFFFF">
                    <g transform="translate(-6.872455, 11.454092)">
                        <path d="M14.0613985,19.4375155 C15.151791,18.1913526 16.9207208,18.1925574 18.0100591,19.4375155 L32.0714576,35.5076852 L0,35.5076852 L14.0613985,19.4375155 Z" id="Triangle-1" stroke-linecap="round" stroke-linejoin="round"></path>
                        <ellipse id="Oval-94" cx="19.4719564" cy="4.5816368" rx="4.5816368" ry="4.5816368"></ellipse>
                        <path d="M38.6612088,9.09558604 C39.76623,7.86778478 41.564144,7.87480789 42.6628444,9.09558604 L66.4337336,35.5076852 L14.8903196,35.5076852 L38.6612088,9.09558604 Z" id="Triangle-1" stroke-linecap="round" stroke-linejoin="round"></path>
                    </g>
                </g>
                <mask id="mask-4" fill="white">
                    <use xlink:href="#path-3"></use>
                </mask>
                <use id="Mask" stroke="#000000" xlink:href="#path-3"></use>
            </g>
            <g id="Group-Copy" transform="translate(310.000000, 270.000000)" fill="#000000">
                <path d="M2.0390625,3.16601562 C2.703125,3.16601562 3.21777344,2.65136719 3.21777344,1.98730469 C3.21777344,1.33984375 2.703125,0.825195312 2.0390625,0.825195312 C1.39160156,0.825195312 0.876953125,1.33984375 0.876953125,1.98730469 C0.876953125,2.65136719 1.39160156,3.16601562 2.0390625,3.16601562 L2.0390625,3.16601562 Z" id="?-copy"></path>
                <path d="M9.0390625,3.16601562 C9.703125,3.16601562 10.2177734,2.65136719 10.2177734,1.98730469 C10.2177734,1.33984375 9.703125,0.825195312 9.0390625,0.825195312 C8.39160156,0.825195312 7.87695312,1.33984375 7.87695312,1.98730469 C7.87695312,2.65136719 8.39160156,3.16601562 9.0390625,3.16601562 L9.0390625,3.16601562 Z" id="?-copy"></path>
                <path d="M16.0390625,3.16601562 C16.703125,3.16601562 17.2177734,2.65136719 17.2177734,1.98730469 C17.2177734,1.33984375 16.703125,0.825195312 16.0390625,0.825195312 C15.3916016,0.825195312 14.8769531,1.33984375 14.8769531,1.98730469 C14.8769531,2.65136719 15.3916016,3.16601562 16.0390625,3.16601562 L16.0390625,3.16601562 Z" id="?-copy"></path>
            </g>
            <g id="Group" transform="translate(301.000000, 258.000000)" stroke="#000000" stroke-linecap="round" stroke-linejoin="round">
                <path d="M0,1 L36.7400017,1" id="Path-62"></path>
                <path d="M4,7 L31.7399998,7" id="Path-62"></path>
            </g>
            <g id="Photo-Copy" transform="translate(377.000000, 227.000000)">
                <mask id="mask-6" fill="white">
                    <use xlink:href="#path-5"></use>
                </mask>
                <use id="Mask" stroke="#000000" xlink:href="#path-5"></use>
                <g id="Group-7" mask="url(#mask-6)" stroke="#000000" fill="#FFFFFF">
                    <g transform="translate(-2.400000, 4.000000)">
                        <path d="M3.62564949,8.25640059 C4.71605317,7.01022495 6.48733665,7.01409903 7.57435051,8.25640059 L11.2,12.4 L0,12.4 L3.62564949,8.25640059 Z" id="Triangle-1" stroke-linecap="round" stroke-linejoin="round"></path>
                        <ellipse id="Oval-94" cx="6.8" cy="1.6" rx="1.6" ry="1.6"></ellipse>
                        <path d="M12.1914263,4.63174853 C13.3007309,3.39918785 15.0958578,3.39539757 16.2085737,4.63174853 L23.2,12.4 L5.2,12.4 L12.1914263,4.63174853 Z" id="Triangle-1" stroke-linecap="round" stroke-linejoin="round"></path>
                    </g>
                </g>
                <mask id="mask-8" fill="white">
                    <use xlink:href="#path-7"></use>
                </mask>
                <use id="Mask" stroke="#000000" xlink:href="#path-7"></use>
            </g>
            <g id="Group-2" transform="translate(375.000000, 246.000000)">
                <g id="Group-Copy" transform="translate(4.864865, 6.750000)" fill="#000000">
                    <path d="M1.10219595,1.78088379 C1.46114865,1.78088379 1.73933699,1.49139404 1.73933699,1.11785889 C1.73933699,0.753662109 1.46114865,0.464172363 1.10219595,0.464172363 C0.752217061,0.464172363 0.474028716,0.753662109 0.474028716,1.11785889 C0.474028716,1.49139404 0.752217061,1.78088379 1.10219595,1.78088379 L1.10219595,1.78088379 Z" id="?-copy"></path>
                    <path d="M4.88597973,1.78088379 C5.24493243,1.78088379 5.52312078,1.49139404 5.52312078,1.11785889 C5.52312078,0.753662109 5.24493243,0.464172363 4.88597973,0.464172363 C4.53600084,0.464172363 4.2578125,0.753662109 4.2578125,1.11785889 C4.2578125,1.49139404 4.53600084,1.78088379 4.88597973,1.78088379 L4.88597973,1.78088379 Z" id="?-copy"></path>
                    <path d="M8.66976351,1.78088379 C9.02871622,1.78088379 9.30690456,1.49139404 9.30690456,1.11785889 C9.30690456,0.753662109 9.02871622,0.464172363 8.66976351,0.464172363 C8.31978463,0.464172363 8.04159628,0.753662109 8.04159628,1.11785889 C8.04159628,1.49139404 8.31978463,1.78088379 8.66976351,1.78088379 L8.66976351,1.78088379 Z" id="?-copy"></path>
                </g>
                <g id="Group" stroke="#000000" stroke-linecap="round" stroke-linejoin="round">
                    <path d="M0,0.5625 L19.8594604,0.5625" id="Path-62"></path>
                    <path d="M2.16216216,3.9375 L17.1567566,3.9375" id="Path-62"></path>
                </g>
            </g>
            <g id="Group" transform="translate(30.000000, 120.000000)" stroke="#000000" fill="#FFFFFF">
                <polygon id="Star-1-Copy" points="45.4465425 40.304723 42.0155572 42.1477456 42.6708171 38.2441611 39.8950918 35.4796272 43.7310498 34.9101019 45.4465425 31.3585035 47.1620351 34.9101019 50.9979931 35.4796272 48.2222678 38.2441611 48.8775277 42.1477456 "></polygon>
                <polygon id="Star-1-Copy-2" points="45.5763877 9.14522522 43.4567397 10.2838367 43.8615564 7.87221886 42.1467251 6.16430159 44.5165637 5.81245129 45.5763877 3.61828886 46.6362118 5.81245129 49.0060503 6.16430159 47.291219 7.87221886 47.6960358 10.2838367 "></polygon>
                <polygon id="Star-1" points="25.4444501 14.4731555 19.893817 17.4547894 20.9538936 11.1395873 16.4633371 6.6671363 22.6691336 5.74576073 25.4444501 0 28.2197667 5.74576073 34.4255632 6.6671363 29.9350067 11.1395873 30.9950833 17.4547894 "></polygon>
                <g id="Group-11" transform="translate(22.700144, 37.656478) rotate(-315.000000) translate(-22.700144, -37.656478) translate(18.700144, 10.656478)">
                    <rect id="Rectangle-204" x="-3.99680289e-13" y="2.84217094e-13" width="7.08247581" height="13.2670592"></rect>
                    <rect id="Rectangle-204-Copy" x="-6.58140209e-13" y="14.4731555" width="7.08247581" height="38.5950812"></rect>
                </g>
            </g>
            <g id="Group-Copy" transform="translate(108.213668, 134.882333)" stroke="#000000" fill="#FFFFFF">
                <polygon id="Star-1-Copy" points="21.2643422 24.8244069 18.1695489 26.5116963 18.7606018 22.9379599 16.2568615 20.4070258 19.7169456 19.8856247 21.2643422 16.6341319 22.8117388 19.8856247 26.2718228 20.4070258 23.7680825 22.9379599 24.3591354 26.5116963 "></polygon>
                <polygon id="Star-1-Copy-2" points="21.3814643 6.77355867 19.4695142 7.81595891 19.8346642 5.60811978 18.287864 4.04451943 20.4254892 3.72240005 21.3814643 1.71364165 22.3374393 3.72240005 24.4750645 4.04451943 22.9282644 5.60811978 23.2934144 7.81595891 "></polygon>
                <polygon id="Star-1" points="7.53626743 9.78485856 3.90974645 11.7620474 4.60235033 7.57429428 1.66843322 4.60851109 5.72300694 3.99752615 7.53626743 0.187382545 9.34952792 3.99752615 13.4041016 4.60851109 10.4701845 7.57429428 11.1627884 11.7620474 "></polygon>
                <g id="Group-11" transform="translate(10.010542, 18.649562) rotate(-315.000000) translate(-10.010542, -18.649562) translate(8.010542, 6.649562)">
                    <rect id="Rectangle-204" x="-2.68229883e-13" y="-2.17159624e-13" width="3.15497938" height="5.99835586"></rect>
                    <rect id="Rectangle-204-Copy" x="5.86197757e-14" y="6.54366094" width="3.15497938" height="17.4497625"></rect>
                </g>
            </g>
            <g id="Group" transform="translate(156.000000, 215.000000)" stroke="#000000" stroke-linecap="round" stroke-linejoin="round">
                <path d="M0,0 L4.05857889e-15,52 L62,52" id="Path-364"></path>
                <path d="M4.19566837,46.2827065 L18.6053845,31.8729904 L24.8936697,38.1612757 L40.245881,22.8090644 L45.6082846,28.171468 L61.4393904,12.3403623" id="Path-365"></path>
            </g>
            <g id="Group-Copy" transform="translate(239.000000, 229.000000)" stroke="#000000" stroke-linecap="round" stroke-linejoin="round">
                <path d="M0,0 L1.76744564e-15,23 L27,23" id="Path-364"></path>
                <path d="M1.8271459,20.4711971 L8.10234486,14.0976688 L10.8407916,16.8790258 L17.526432,10.0886246 L19.8616723,12.460457 L26.7558636,5.45823715" id="Path-365"></path>
            </g>
            <g id="Group-12" transform="translate(23.000000, 207.000000)" stroke="#000000">
                <ellipse id="Oval-89-Copy" cx="32.5" cy="32.5" rx="16.0074627" ry="16.0074627"></ellipse>
                <g id="Group-2-Copy" stroke-linecap="round" stroke-linejoin="round">
                    <g id="Group" transform="translate(31.044776, 0.000000)">
                        <path d="M1.45522388,0 L1.45522388,11.641791" id="Path-258"></path>
                        <path d="M1.45522388,53.358209 L1.45522388,65" id="Path-258"></path>
                    </g>
                    <g id="Group" transform="translate(32.500000, 32.544776) rotate(-270.000000) translate(-32.500000, -32.544776) translate(31.000000, 0.044776)">
                        <path d="M1.45522388,8.43769499e-14 L1.45522388,11.641791" id="Path-258"></path>
                        <path d="M1.45522388,53.358209 L1.45522388,65" id="Path-258"></path>
                    </g>
                    <g id="Group" transform="translate(32.468339, 32.531661) rotate(-225.000000) translate(-32.468339, -32.531661) translate(30.968339, 0.031661)">
                        <path d="M1.45522388,4.98268093e-13 L1.45522388,11.641791" id="Path-258"></path>
                        <path d="M1.45522388,53.358209 L1.45522388,65" id="Path-258"></path>
                    </g>
                    <g id="Group" transform="translate(32.468339, 32.468339) rotate(-135.000000) translate(-32.468339, -32.468339) translate(30.968339, -0.031661)">
                        <path d="M1.45522388,-2.61124455e-13 L1.45522388,11.641791" id="Path-258"></path>
                        <path d="M1.45522388,53.358209 L1.45522388,65" id="Path-258"></path>
                    </g>
                </g>
            </g>
            <g id="Group-12-Copy" transform="translate(106.000000, 224.000000)" stroke="#000000">
                <ellipse id="Oval-89-Copy" cx="15" cy="15" rx="7.3880597" ry="7.3880597"></ellipse>
                <g id="Group-2-Copy" stroke-linecap="round" stroke-linejoin="round">
                    <g id="Group" transform="translate(14.328358, 0.000000)">
                        <path d="M0.671641791,0 L0.671641791,5.37313433" id="Path-258"></path>
                        <path d="M0.671641791,24.6268657 L0.671641791,30" id="Path-258"></path>
                    </g>
                    <g id="Group" transform="translate(15.000000, 15.328358) rotate(-270.000000) translate(-15.000000, -15.328358) translate(14.000000, 0.328358)">
                        <path d="M0.671641791,1.39888101e-13 L0.671641791,5.37313433" id="Path-258"></path>
                        <path d="M0.671641791,24.6268657 L0.671641791,30" id="Path-258"></path>
                    </g>
                    <g id="Group" transform="translate(14.767816, 15.232184) rotate(-225.000000) translate(-14.767816, -15.232184) translate(13.767816, 0.232184)">
                        <path d="M0.671641791,3.51274565e-13 L0.671641791,5.37313433" id="Path-258"></path>
                        <path d="M0.671641791,24.6268657 L0.671641791,30" id="Path-258"></path>
                    </g>
                    <g id="Group" transform="translate(14.767816, 14.767816) rotate(-135.000000) translate(-14.767816, -14.767816) translate(13.767816, -0.232184)">
                        <path d="M0.671641791,-6.43929354e-14 L0.671641791,5.37313433" id="Path-258"></path>
                        <path d="M0.671641791,24.6268657 L0.671641791,30" id="Path-258"></path>
                    </g>
                </g>
            </g>
            <g id="Group" transform="translate(152.000000, 116.000000)" fill="#FFFFFF">
                <rect id="Rectangle-217" x="16" y="0" width="38" height="70"></rect>
                <rect id="Rectangle-217-Copy" transform="translate(35.000000, 35.000000) rotate(-270.000000) translate(-35.000000, -35.000000) " x="16" y="0" width="38" height="70"></rect>
            </g>
            <g id="Photo" transform="translate(162.561351, 126.068173)">
                <mask id="mask-10" fill="white">
                    <use xlink:href="#path-9"></use>
                </mask>
                <use id="Mask" stroke="#000000" xlink:href="#path-9"></use>
                <g id="Group-7" mask="url(#mask-10)" stroke="#000000" fill="#FFFFFF">
                    <g transform="translate(-7.556517, 12.594195)">
                        <path d="M15.6605956,21.1441796 C16.7493017,19.899944 18.518323,19.9043783 19.6031492,21.1441796 L35.2637447,39.0420031 L0,39.0420031 L15.6605956,21.1441796 Z" id="Triangle-1" stroke-linecap="round" stroke-linejoin="round"></path>
                        <ellipse id="Oval-94" cx="21.4101307" cy="5.03767782" rx="5.03767782" ry="5.03767782"></ellipse>
                        <path d="M42.7055021,9.78305951 C43.8122192,8.55337388 45.6042607,8.55081686 46.7132791,9.78305951 L73.0463283,39.0420031 L16.3724529,39.0420031 L42.7055021,9.78305951 Z" id="Triangle-1" stroke-linecap="round" stroke-linejoin="round"></path>
                    </g>
                </g>
                <mask id="mask-12" fill="white">
                    <use xlink:href="#path-11"></use>
                </mask>
                <use id="Mask" stroke="#000000" xlink:href="#path-11"></use>
            </g>
            <g id="Group" transform="translate(236.000000, 134.000000)" fill="#FFFFFF">
                <rect id="Rectangle-217" x="7.77142857" y="0" width="18.4571429" height="34"></rect>
                <rect id="Rectangle-217-Copy" transform="translate(17.000000, 17.000000) rotate(-270.000000) translate(-17.000000, -17.000000) " x="7.77142857" y="-8.52651283e-14" width="18.4571429" height="34"></rect>
            </g>
            <g id="Photo-Copy" transform="translate(242.000000, 140.000000)">
                <mask id="mask-14" fill="white">
                    <use xlink:href="#path-13"></use>
                </mask>
                <use id="Mask" stroke="#000000" xlink:href="#path-13"></use>
                <g id="Group-7" mask="url(#mask-14)" stroke="#000000" fill="#FFFFFF">
                    <g transform="translate(-3.348000, 5.580000)">
                        <path d="M5.84070247,10.6229112 C6.92941997,9.37866265 8.69295009,9.37680011 9.78329732,10.6229112 L15.6239998,17.2979998 L0,17.2979998 L5.84070247,10.6229112 Z" id="Triangle-1" stroke-linecap="round" stroke-linejoin="round"></path>
                        <ellipse id="Oval-94" cx="9.48599987" cy="2.23199997" rx="2.23199997" ry="2.23199997"></ellipse>
                        <path d="M17.80574,5.57384411 C18.9121098,4.34454433 20.7119244,4.35124954 21.8122595,5.57384411 L32.3639996,17.2979998 L7.2539999,17.2979998 L17.80574,5.57384411 Z" id="Triangle-1" stroke-linecap="round" stroke-linejoin="round"></path>
                    </g>
                </g>
                <mask id="mask-16" fill="white">
                    <use xlink:href="#path-15"></use>
                </mask>
                <use id="Mask" stroke="#000000" xlink:href="#path-15"></use>
            </g>
            <g id="Group" transform="translate(27.000000, 31.000000)" stroke="#000000">
                <path d="M2.94905271,40.5217104 C7.54546041,49.6994072 17.0369391,56 28,56 C43.463973,56 56,43.463973 56,28 C56,12.536027 43.463973,0 28,0 C23.8256109,0 19.8645787,0.913489611 16.3058993,2.55147302 C6.68149462,6.98137893 0,16.7104161 0,28 L8.53923254,28" id="Oval-110" stroke-linecap="round" stroke-linejoin="round" transform="translate(28.000000, 28.000000) rotate(-270.000000) translate(-28.000000, -28.000000) "></path>
                <path d="M27.7781746,27.7781746 L10.8076118,10.8076118" id="Path-329" stroke-linecap="round" stroke-linejoin="round"></path>
                <circle id="Oval-111" fill="#FFFFFF" cx="28" cy="28" r="2"></circle>
            </g>
            <g id="Group-Copy" transform="translate(107.000000, 45.000000)" stroke="#000000">
                <path d="M1.47452635,20.2608552 C3.77273021,24.8497036 8.51846953,28 14,28 C21.7319865,28 28,21.7319865 28,14 C28,6.2680135 21.7319865,0 14,0 C11.9128054,0 9.93228935,0.456744806 8.15294963,1.27573651 C3.34074731,3.49068946 -1.77635684e-15,8.35520806 -1.77635684e-15,14 L4.26961627,14" id="Oval-110" stroke-linecap="round" stroke-linejoin="round" transform="translate(14.000000, 14.000000) rotate(-270.000000) translate(-14.000000, -14.000000) "></path>
                <path d="M13.8890873,13.8890873 L5.40380592,5.40380592" id="Path-329" stroke-linecap="round" stroke-linejoin="round"></path>
                <circle id="Oval-111" fill="#FFFFFF" cx="14" cy="14" r="1"></circle>
            </g>
            <g id="Group" transform="translate(167.000000, 33.000000)" stroke="#000000">
                <path d="M0,3.00136554 C0,1.34375712 1.34655761,-2.84217094e-14 2.99015665,-2.84217094e-14 L26.0664796,-2.84217094e-14 L41,15.086771 L41,49.9933222 C41,51.6538645 39.6591666,53 38.0017833,53 L2.99821673,53 C1.34234735,53 0,51.6633729 0,49.9986345 L0,3.00136554 Z" id="Rectangle-62" fill="#FFFFFF"></path>
                <path d="M26.1369768,0.647372262 L26.1369768,12.3856711 C26.1369768,14.042719 27.4743435,15.3860218 29.1396617,15.3860218 L40.6286537,15.3860218" id="Path-51" stroke-linejoin="round"></path>
            </g>
            <g id="Group-Copy-2" transform="translate(174.000000, 61.000000)" stroke="#000000" stroke-linecap="round" stroke-linejoin="round">
                <path d="M0.504596945,2.53333333 L16.4364156,2.53333333" id="Path-62"></path>
                <path d="M0.504596945,11.6 L20.9818702,11.6" id="Path-62"></path>
            </g>
            <g id="Group-Copy-2" transform="translate(194.000000, 72.000000)" stroke="#000000">
                <circle id="Oval-8" fill="#FFFFFF" cx="9.5" cy="9.5" r="9.5"></circle>
                <g id="Group-2-Copy-2" transform="translate(5.700000, 5.700000)" stroke-linecap="round" stroke-linejoin="round">
                    <path d="M3.8,-1.05249143e-13 L3.8,7.6" id="Path-40"></path>
                    <path d="M7.6,3.8 L-7.72715225e-14,3.8" id="Path-40-Copy"></path>
                </g>
            </g>
            <g id="Group-2" transform="translate(172.000000, 40.000000)">
                <g id="Group">
                    <mask id="mask-18" fill="white">
                        <use xlink:href="#path-17"></use>
                    </mask>
                    <use id="Mask" stroke="#000000" xlink:href="#path-17"></use>
                    <g mask="url(#mask-18)" stroke="#000000" fill="#FFFFFF">
                        <g transform="translate(2.833333, 3.541667)">
                            <path d="M1.65033019,14.507078 C3.93910139,16.7958492 7.64993271,16.7958492 9.93870392,14.507078 C12.2274751,12.2183068 10.7622838,10.441507 8.4735126,8.15273581 C6.18474139,5.8639646 5.40429271,5.8639646 3.11552151,8.15273581 C0.826750301,10.441507 -0.638441016,12.2183068 1.65033019,14.507078 Z" id="Oval-2"></path>
                            <ellipse id="Oval-1" cx="5.79451705" cy="4.19272029" rx="3.9822879" ry="4.19272029"></ellipse>
                        </g>
                    </g>
                </g>
                <mask id="mask-20" fill="white">
                    <use xlink:href="#path-19"></use>
                </mask>
                <use id="Mask" stroke="#000000" xlink:href="#path-19"></use>
            </g>
            <g id="Group-Copy" transform="translate(237.000000, 48.000000)" stroke="#000000">
                <path d="M0,3.00684834 C0,1.34621185 1.33514844,-1.42108547e-14 3.00672907,-1.42108547e-14 L11.4438203,-1.42108547e-14 L18,6.54708932 L18,20.0014137 C18,21.6574872 16.6470745,23 15.0074602,23 L2.99253976,23 C1.33980569,23 0,21.6640085 0,19.9931517 L0,3.00684834 Z" id="Rectangle-62" fill="#FFFFFF"></path>
                <path d="M11.1700001,0.380000114 L11.1700001,3.78400379 C11.1700001,5.43644752 12.519259,6.77601784 14.1648021,6.77601784 L17.5321997,6.77601784" id="Path-51" stroke-linejoin="round"></path>
            </g>
            <g id="Group" transform="translate(246.000000, 62.000000)" stroke="#000000">
                <circle id="Oval-8" fill="#FFFFFF" cx="5" cy="5" r="5"></circle>
                <g id="Group-2-Copy-2" transform="translate(3.000000, 3.000000)" stroke-linecap="round" stroke-linejoin="round">
                    <path d="M2,-5.17363929e-14 L2,4" id="Path-40"></path>
                    <path d="M4,2 L-7.10542736e-15,2" id="Path-40-Copy"></path>
                </g>
            </g>
            <g id="Group" transform="translate(240.000000, 60.000000)" stroke="#000000" stroke-linecap="round" stroke-linejoin="round">
                <path d="M0.662022656,1.5 L7.67202288,1.5" id="Path-62"></path>
                <path d="M0.662022656,5.5 L6.16202266,5.5" id="Path-62"></path>
            </g>
            <g id="Group-2" transform="translate(240.000000, 52.000000)">
                <g id="Group">
                    <mask id="mask-22" fill="white">
                        <use xlink:href="#path-21"></use>
                    </mask>
                    <use id="Mask" stroke="#000000" xlink:href="#path-21"></use>
                    <g mask="url(#mask-22)" stroke="#000000" fill="#FFFFFF">
                        <g transform="translate(1.095105, 1.368881)">
                            <path d="M0.637865177,5.60709606 C1.52249267,6.49172355 2.95675721,6.49172355 3.8413847,5.60709606 C4.72601219,4.72246857 4.15970459,4.03572192 3.2750771,3.15109443 C2.39044962,2.26646694 2.08880026,2.26646694 1.20417277,3.15109443 C0.319545283,4.03572192 -0.246762311,4.72246857 0.637865177,5.60709606 Z" id="Oval-2"></path>
                            <ellipse id="Oval-1" cx="2.23962494" cy="1.6205183" rx="1.53918458" ry="1.6205183"></ellipse>
                        </g>
                    </g>
                </g>
                <mask id="mask-24" fill="white">
                    <use xlink:href="#path-23"></use>
                </mask>
                <use id="Mask" stroke="#000000" xlink:href="#path-23"></use>
            </g>
            <g id="Group-9" transform="translate(289.000000, 29.000000)">
                <g id="Group-8">
                    <mask id="mask-26" fill="white">
                        <use xlink:href="#path-25"></use>
                    </mask>
                    <use id="Mask" stroke="#000000" xlink:href="#path-25"></use>
                </g>
                <g id="Pin-Copy" transform="translate(22.256757, 19.783784)" stroke="#000000">
                    <path d="M8.65540541,22.2567568 C8.65540541,22.2567568 17.3108108,13.4356538 17.3108108,8.65540541 C17.3108108,3.875157 13.4356538,0 8.65540541,0 C3.875157,0 0,3.875157 0,8.65540541 C0,13.4356538 8.65540541,22.2567568 8.65540541,22.2567568 Z" id="Oval-98"></path>
                    <ellipse id="Oval-99" cx="8.65540541" cy="7.83108108" rx="2.88513514" ry="2.88513514"></ellipse>
                </g>
                <g id="Group-8">
                    <mask id="mask-28" fill="white">
                        <use xlink:href="#path-27"></use>
                    </mask>
                    <use id="Mask" xlink:href="#path-27"></use>
                    <g mask="url(#mask-28)" stroke="#000000">
                        <g transform="translate(31.419879, 29.771231) rotate(-45.000000) translate(-31.419879, -29.771231) translate(-29.580121, -43.728769)">
                            <rect id="Rectangle-162" x="48.6351351" y="48.6351351" width="24.7297297" height="49.4594595"></rect>
                            <rect id="Rectangle-162-Copy-3" transform="translate(97.270270, 61.000000) rotate(-270.000000) translate(-97.270270, -61.000000) " x="84.9054054" y="36.2702703" width="24.7297297" height="49.4594595"></rect>
                            <rect id="Rectangle-162-Copy-4" transform="translate(84.905405, 97.270270) rotate(-180.000000) translate(-84.905405, -97.270270) " x="72.5405405" y="72.5405405" width="24.7297297" height="49.4594595"></rect>
                            <rect id="Rectangle-162-Copy-6" transform="translate(37.094595, 73.364865) rotate(-180.000000) translate(-37.094595, -73.364865) " x="24.7297297" y="48.6351351" width="24.7297297" height="49.4594595"></rect>
                            <rect id="Rectangle-162-Copy-5" transform="translate(108.810811, 97.270270) rotate(-180.000000) translate(-108.810811, -97.270270) " x="96.4459459" y="72.5405405" width="24.7297297" height="49.4594595"></rect>
                            <rect id="Rectangle-162-Copy" x="48.6351351" y="-4.26325641e-14" width="24.7297297" height="49.4594595"></rect>
                            <rect id="Rectangle-162-Copy-10" x="72.5405405" y="-4.26325641e-14" width="24.7297297" height="49.4594595"></rect>
                            <rect id="Rectangle-162-Copy-2" x="48.6351351" y="97.2702703" width="24.7297297" height="49.4594595"></rect>
                            <rect id="Rectangle-162-Copy-7" transform="translate(24.729730, 37.094595) rotate(-90.000000) translate(-24.729730, -37.094595) " x="12.3648649" y="12.3648649" width="24.7297297" height="49.4594595"></rect>
                            <rect id="Rectangle-162-Copy-8" transform="translate(24.729730, 109.635135) rotate(-90.000000) translate(-24.729730, -109.635135) " x="12.3648649" y="84.9054054" width="24.7297297" height="49.4594595"></rect>
                            <rect id="Rectangle-162-Copy-9" transform="translate(24.729730, 133.540541) rotate(-90.000000) translate(-24.729730, -133.540541) " x="12.3648649" y="108.810811" width="24.7297297" height="49.4594595"></rect>
                        </g>
                    </g>
                </g>
            </g>
            <g id="Group-9-Copy" transform="translate(371.000000, 44.000000)">
                <g id="Group-8">
                    <mask id="mask-30" fill="white">
                        <use xlink:href="#path-29"></use>
                    </mask>
                    <use id="Mask" stroke="#000000" xlink:href="#path-29"></use>
                </g>
                <g id="Pin-Copy" transform="translate(10.945946, 9.729730)" stroke="#000000">
                    <path d="M4.25675676,10.9459459 C4.25675676,10.9459459 8.51351351,6.6076986 8.51351351,4.25675676 C8.51351351,1.90581492 6.6076986,0 4.25675676,0 C1.90581492,0 0,1.90581492 0,4.25675676 C0,6.6076986 4.25675676,10.9459459 4.25675676,10.9459459 Z" id="Oval-98"></path>
                    <circle id="Oval-99" cx="4.25675676" cy="3.85135135" r="1.41891892"></circle>
                </g>
                <g id="Group-8">
                    <mask id="mask-32" fill="white">
                        <use xlink:href="#path-31"></use>
                    </mask>
                    <use id="Mask" xlink:href="#path-31"></use>
                    <g mask="url(#mask-32)" stroke="#000000">
                        <g transform="translate(15.348072, 14.537262) rotate(-45.000000) translate(-15.348072, -14.537262) translate(-14.651928, -21.462738)">
                            <path d="M23.9189189,23.9189189 L36.0810811,23.9189189 L36.0810811,48.2432432 L23.9189189,48.2432432 L23.9189189,51.1667183" id="Rectangle-162"></path>
                            <path d="M36.0810811,38.0610545 L36.0810811,62.3853789 L23.9189189,62.3853789 L23.9189189,65.3088539" id="Rectangle-162"></path>
                            <rect id="Rectangle-162-Copy-6" transform="translate(18.243243, 36.081081) rotate(-180.000000) translate(-18.243243, -36.081081) " x="12.1621622" y="23.9189189" width="12.1621622" height="24.3243243"></rect>
                            <path d="M24.3243243,38.0610545 L24.3243243,62.3853789 L12.1621622,62.3853789" id="Rectangle-162-Copy-6"></path>
                            <rect id="Rectangle-162-Copy-5" transform="translate(53.513514, 47.837838) rotate(-180.000000) translate(-53.513514, -47.837838) " x="47.4324324" y="35.6756757" width="12.1621622" height="24.3243243"></rect>
                            <rect id="Rectangle-162-Copy-10" x="35.6756757" y="3.01980663e-14" width="12.1621622" height="24.3243243"></rect>
                            <rect id="Rectangle-162-Copy-7" transform="translate(12.162162, 18.243243) rotate(-90.000000) translate(-12.162162, -18.243243) " x="6.08108108" y="6.08108108" width="12.1621622" height="24.3243243"></rect>
                            <rect id="Rectangle-162-Copy-9" transform="translate(12.162162, 65.675676) rotate(-90.000000) translate(-12.162162, -65.675676) " x="6.08108108" y="53.5135135" width="12.1621622" height="24.3243243"></rect>
                            <path d="M35.7353019,35.5092359 L48.9259315,35.5092359" id="Path-330"></path>
                        </g>
                    </g>
                </g>
            </g>
            <g id="Group-6" transform="translate(424.000000, 214.000000)">
                <g id="Group-3">
                    <g id="Group-2">
                        <g id="Group">
                            <mask id="mask-34" fill="white">
                                <use xlink:href="#path-33"></use>
                            </mask>
                            <use id="Mask" stroke="#000000" xlink:href="#path-33"></use>
                            <g mask="url(#mask-34)" stroke="#000000" fill="#FFFFFF">
                                <g transform="translate(4.000000, 5.000000)">
                                    <path d="M2.32987791,20.4805807 C5.56108432,23.7117872 10.799905,23.7117872 14.0311114,20.4805807 C17.2623178,17.2493743 15.1938124,14.7409511 11.962606,11.5097447 C8.73139962,8.27853826 7.62958971,8.27853826 4.3983833,11.5097447 C1.1671769,14.7409511 -0.901328493,17.2493743 2.32987791,20.4805807 Z" id="Oval-2"></path>
                                    <ellipse id="Oval-1" cx="8.18049466" cy="5.91913453" rx="5.62205351" ry="5.91913453"></ellipse>
                                </g>
                            </g>
                        </g>
                        <mask id="mask-36" fill="white">
                            <use xlink:href="#path-35"></use>
                        </mask>
                        <use id="Mask" stroke="#000000" xlink:href="#path-35"></use>
                    </g>
                    <g id="Group-2-Copy" transform="translate(0.000000, 31.000000)">
                        <g id="Group">
                            <mask id="mask-38" fill="white">
                                <use xlink:href="#path-37"></use>
                            </mask>
                            <use id="Mask" stroke="#000000" xlink:href="#path-37"></use>
                            <g mask="url(#mask-38)" stroke="#000000" fill="#FFFFFF">
                                <g transform="translate(4.000000, 5.000000)">
                                    <path d="M2.32987791,20.4805807 C5.56108432,23.7117872 10.799905,23.7117872 14.0311114,20.4805807 C17.2623178,17.2493743 15.1938124,14.7409511 11.962606,11.5097447 C8.73139962,8.27853826 7.62958971,8.27853826 4.3983833,11.5097447 C1.1671769,14.7409511 -0.901328493,17.2493743 2.32987791,20.4805807 Z" id="Oval-2"></path>
                                    <ellipse id="Oval-1" cx="8.18049466" cy="5.91913453" rx="5.62205351" ry="5.91913453"></ellipse>
                                </g>
                            </g>
                        </g>
                        <mask id="mask-40" fill="white">
                            <use xlink:href="#path-39"></use>
                        </mask>
                        <use id="Mask" stroke="#000000" xlink:href="#path-39"></use>
                    </g>
                </g>
                <g id="Group-5" transform="translate(31.000000, 4.000000)" stroke="#000000" stroke-linecap="round" stroke-linejoin="round">
                    <path d="M0.504596945,2.4 L18.7091429,2.4" id="Path-62"></path>
                    <path d="M0.504596945,11.4666667 L23.2440438,11.4666667" id="Path-62"></path>
                </g>
                <g id="Group-4" transform="translate(32.000000, 35.000000)" stroke="#000000" stroke-linecap="round" stroke-linejoin="round">
                    <path d="M0.504596945,2.53333333 L16.4364156,2.53333333" id="Path-62"></path>
                    <path d="M0.504596945,11.6 L20.9818702,11.6" id="Path-62"></path>
                </g>
            </g>
            <g id="Group-6-Copy" transform="translate(503.000000, 227.000000)">
                <g id="Group-3">
                    <g id="Group-2">
                        <g id="Group">
                            <mask id="mask-42" fill="white">
                                <use xlink:href="#path-41"></use>
                            </mask>
                            <use id="Mask" stroke="#000000" xlink:href="#path-41"></use>
                            <g mask="url(#mask-42)" stroke="#000000" fill="#FFFFFF">
                                <g transform="translate(2.033766, 2.542208)">
                                    <path d="M1.18460676,10.4131784 C2.82748638,12.056058 5.49112053,12.056058 7.13400015,10.4131784 C8.77687977,8.77029877 7.72516567,7.49491214 6.08228605,5.85203252 C4.43940643,4.2091529 3.87920048,4.2091529 2.23632086,5.85203252 C0.59344124,7.49491214 -0.458272864,8.77029877 1.18460676,10.4131784 Z" id="Oval-2"></path>
                                    <ellipse id="Oval-1" cx="4.15930346" cy="3.00953399" rx="2.85848565" ry="3.00953399"></ellipse>
                                </g>
                            </g>
                        </g>
                        <mask id="mask-44" fill="white">
                            <use xlink:href="#path-43"></use>
                        </mask>
                        <use id="Mask" stroke="#000000" xlink:href="#path-43"></use>
                    </g>
                    <g id="Group-2-Copy" transform="translate(0.000000, 15.761688)">
                        <g id="Group">
                            <mask id="mask-46" fill="white">
                                <use xlink:href="#path-45"></use>
                            </mask>
                            <use id="Mask" stroke="#000000" xlink:href="#path-45"></use>
                            <g mask="url(#mask-46)" stroke="#000000" fill="#FFFFFF">
                                <g transform="translate(2.033766, 2.542208)">
                                    <path d="M1.18460676,10.4131784 C2.82748638,12.056058 5.49112053,12.056058 7.13400015,10.4131784 C8.77687977,8.77029877 7.72516567,7.49491214 6.08228605,5.85203252 C4.43940643,4.2091529 3.87920048,4.2091529 2.23632086,5.85203252 C0.59344124,7.49491214 -0.458272864,8.77029877 1.18460676,10.4131784 Z" id="Oval-2"></path>
                                    <ellipse id="Oval-1" cx="4.15930346" cy="3.00953399" rx="2.85848565" ry="3.00953399"></ellipse>
                                </g>
                            </g>
                        </g>
                        <mask id="mask-48" fill="white">
                            <use xlink:href="#path-47"></use>
                        </mask>
                        <use id="Mask" stroke="#000000" xlink:href="#path-47"></use>
                    </g>
                </g>
                <g id="Group-5" transform="translate(15.761688, 2.033766)" stroke="#000000" stroke-linecap="round" stroke-linejoin="round">
                    <path d="M0.256558057,1.22025974 L9.51250578,1.22025974" id="Path-62"></path>
                    <path d="M0.256558057,5.83012987 L11.8182379,5.83012987" id="Path-62"></path>
                </g>
                <g id="Group-4" transform="translate(16.270130, 17.795455)" stroke="#000000" stroke-linecap="round" stroke-linejoin="round">
                    <path d="M0.256558057,1.28805195 L8.35695679,1.28805195" id="Path-62"></path>
                    <path d="M0.256558057,5.89792208 L10.6680548,5.89792208" id="Path-62"></path>
                </g>
            </g>
            <rect id="Rectangle-1" stroke="#000000" x="416" y="128" width="70" height="46" rx="3"></rect>
            <g id="Group" transform="translate(439.000000, 159.000000)" stroke="#000000" fill="#D8D8D8">
                <rect id="Rectangle-14" x="0" y="0" width="25" height="1"></rect>
                <rect id="Rectangle-14-Copy" x="2" y="4" width="20" height="1"></rect>
            </g>
            <circle id="Oval-5" stroke="#000000" cx="451" cy="145" r="9"></circle>
            <path d="M448.377174,149.221393 L452.716229,149.221393 L452.716229,137.872009" id="Path-39" stroke="#000000" stroke-linecap="round" stroke-linejoin="round" transform="translate(450.546701, 143.546701) rotate(-315.000000) translate(-450.546701, -143.546701) "></path>
            <g id="Group-2" transform="translate(474.363961, 138.363961) rotate(-45.000000) translate(-474.363961, -138.363961) translate(469.863961, 133.863961)" stroke="#000000" stroke-linecap="round" stroke-linejoin="round">
                <path d="M4.5,0 L4.5,9" id="Path-40"></path>
                <path d="M9,4.5 L0,4.5" id="Path-40-Copy"></path>
            </g>
            <rect id="Rectangle-1-Copy" stroke="#000000" x="502" y="141" width="30" height="20" rx="3"></rect>
            <g id="Group" transform="translate(513.000000, 144.000000)" stroke="#000000">
                <ellipse id="Oval-5-Copy" cx="4" cy="4" rx="4" ry="4"></ellipse>
                <path d="M2.4,4.06114696 L3.42816969,5.08931665 L6.11748634,2.4" id="Path-39-Copy" stroke-linecap="round" stroke-linejoin="round"></path>
            </g>
            <g id="Group-2-Copy" transform="translate(526.803301, 145.949747) rotate(-45.000000) translate(-526.803301, -145.949747) translate(524.803301, 143.949747)" stroke="#000000" stroke-linecap="round" stroke-linejoin="round">
                <path d="M2,-5.17363929e-14 L2,4" id="Path-40"></path>
                <path d="M4,2 L-7.10542736e-15,2" id="Path-40-Copy"></path>
            </g>
            <path d="M524.432988,154.5 L510,154.5" id="Path-48" stroke="#000000" stroke-linecap="round" stroke-linejoin="round"></path>
            <path d="M521,157 L513,157" id="Path-48-Copy" stroke="#000000" stroke-linecap="round" stroke-linejoin="round"></path>
        </g>
    </g>
</svg>